<?xml version="1.0" encoding="UTF-8" standalone="no"?>
<svg
   viewBox="0 0 4.4437533 4.4122549"
   width="123.43759"
   height="122.56264"
   id="svg2"
   version="1.1"
   inkscape:version="0.47 r22583"
   sodipodi:docname="cat.svg"
   xmlns:inkscape="http://www.inkscape.org/namespaces/inkscape"
   xmlns:sodipodi="http://sodipodi.sourceforge.net/DTD/sodipodi-0.dtd"
   xmlns="http://www.w3.org/2000/svg"
   xmlns:svg="http://www.w3.org/2000/svg"
   xmlns:rdf="http://www.w3.org/1999/02/22-rdf-syntax-ns#"
   xmlns:cc="http://creativecommons.org/ns#"
   xmlns:dc="http://purl.org/dc/elements/1.1/">
  <metadata
     id="metadata12">
    <rdf:RDF>
      <cc:Work
         rdf:about="">
        <dc:format>image/svg+xml</dc:format>
        <dc:type
           rdf:resource="http://purl.org/dc/dcmitype/StillImage" />
      </cc:Work>
    </rdf:RDF>
  </metadata>
  <defs
     id="defs10" />
  <sodipodi:namedview
     pagecolor="#ffffff"
     bordercolor="#666666"
     borderopacity="1"
     objecttolerance="10"
     gridtolerance="10"
     guidetolerance="10"
     inkscape:pageopacity="0"
     inkscape:pageshadow="2"
     inkscape:window-width="1280"
     inkscape:window-height="1004"
     id="namedview8"
     showgrid="false"
     inkscape:zoom="1.888"
     inkscape:cx="191.31505"
     inkscape:cy="-17.363667"
     inkscape:window-x="-8"
     inkscape:window-y="-8"
     inkscape:window-maximized="1"
     inkscape:current-layer="svg2"
     inkscape:showpageshadow="0"
     inkscape:pagecheckerboard="1"
     inkscape:deskcolor="#505050" />
  <path
     style="fill:#000000;fill-opacity:1;stroke-width:1.00001;stroke-dasharray:none"
     d="m 0.7627482,0 -0.00675,0.00225 -0.0135,0.003375 -0.014625,0.02925 -0.00225,0.00225 -0.0135,0.010125 0.001123,0.048375 -0.00225,0.018 -0.027,0.032625 v 0.009 0.001125 l 0.021375,0.0135 -0.005625,0.02025 -0.003373,0.005625 -0.001123,0.01125 0.005625,0.010125 0.005625,0.012375 0.00225,0.012375 0.001123,0.01125 0.00675,0.012375 0.003373,0.009 v 0.036 l 0.00675,0.014625 0.00225,0.00675 -0.001123,0.0135 h -0.003373 l 0.003373,0.012375 0.005625,0.01125 0.019125,0.023625 0.0045,0.0135 -0.00225,0.014625 0.00675,0.012375 V 0.44775 l 0.007875,0.0135 0.01125,0.009 0.0135,0.003375 0.01125,0.010125 0.014625,0.001125 0.0135,-0.005625 0.018,0.00675 0.00675,0.009 V 0.504 L 0.8572502,0.513 0.8505002,0.51975 0.8471272,0.54 v 0.01125 l -0.001123,0.021375 -0.00675,0.018 -0.00675,0.00675 -0.009,0.018 -0.003373,0.010125 v 0.009 l -0.009,0.003375 -0.0135,0.0135 -0.003373,0.01125 0.005625,0.007875 0.01125,0.01125 0.001123,0.014625 -0.02475,0.016875 -0.0135,-0.007875 -0.0135,0.005625 -0.00675,0.0135 V 0.738 l 0.00675,0.01125 0.01575,0.014625 v 0.009 l -0.010125,0.007875 0.0045,0.010125 -0.001123,0.012375 0.009,0.007875 0.001123,0.009 0.009,0.003375 0.00675,0.009 0.010125,0.005625 0.003373,0.009 0.005625,0.007875 0.003373,0.009 0.00225,0.01125 -0.001123,0.01125 0.0045,0.018 0.005625,0.01125 -0.0045,0.009 0.0045,0.010125 -0.005625,0.009 0.005625,0.012375 -0.001123,0.01125 0.003373,0.009 -0.007875,0.041625 0.00225,0.010125 v 0.009 l 0.005625,0.00788 v 0.009 l -0.009,0.00562 -0.0045,0.009 -0.001123,0.009 0.007875,0.00562 -0.001123,0.018 -0.00675,0.00675 -0.00225,0.010125 v 0.009 l 0.00675,0.00787 -0.003373,0.019125 -0.003373,0.010125 -0.00675,0.00788 0.001123,0.010125 -0.00225,0.009 -0.007875,0.010125 -0.003373,0.009 -0.009,0.00562 -0.003373,0.009 -0.001123,0.01125 V 1.24649 l -0.0045,0.00788 v 0.01125 l -0.00225,0.018 -0.01125,0.02025 0.001123,0.014625 -0.009,0.018 v 0.009 h 0.009 l 0.0135,0.00562 V 1.36349 l -0.0135,0.00788 -0.009,0.012375 0.00225,0.014625 v 0.010125 l 0.007875,0.00787 -0.0495,0.1575 -0.010125,0.010125 -0.019125,0.025875 0.00675,0.00675 -0.030375,0.055125 -0.0135,0.012375 -0.007875,0.012375 -0.003373,0.010125 v 0.00112 l -0.0045,0.009 -0.0045,0.009 -0.009,0.0045 -0.0135,-0.00337 -0.014625,0.009 -0.018,0.025875 -0.010125,0.01125 0.001123,0.0135 0.012375,0.00562 0.009,0.01125 0.02025,0.009 0.001123,0.00562 0.003373,0.009 v 0.0135 l -0.003373,0.027 0.0045,0.016875 0.005625,0.01125 -0.009,0.012375 -0.021375,0.012375 0.00225,0.010125 v 0.0045 L 0.5737622,1.93948 0.5568872,1.93836 0.5467622,1.94961 0.5433892,1.961985 V 1.97661 l -0.00675,0.0135 -0.012375,0.00675 -0.014625,-0.00112 -0.014625,0.00337 -0.0135,0.00563 -0.036,0.04725 -0.005625,0.01125 -0.001123,0.016875 -0.003373,0.012375 -0.007875,0.01125 -0.030375,0.00675 -0.028125,0.00225 -0.016875,0.00563 -0.012375,0.00562 -0.01125,0.010125 -0.003373,0.0135 0.00675,0.012375 -0.014625,-0.00225 -0.012375,0.009 -0.009,0.014625 -0.001123,0.014625 -0.0045,0.012375 -0.0135,0.00675 -0.01125,0.01125 -0.01125,0.00787 -0.009,0.0135 -0.010125,0.009 -0.007875,0.012375 0.0045,0.012375 0.003373,0.014625 0.00675,0.01575 0.0045,0.012375 0.023625,0.023625 0.001123,0.0135 -0.009,0.01125 -0.001123,0.0135 0.01125,0.027 0.0135,0.00562 0.0135,-0.00225 0.02925,0.00788 0.016875,-0.00675 h 0.025875 l 0.012375,0.010125 0.00225,0.014625 -0.010125,0.014625 v 0.0135 l 0.003373,0.0135 0.021375,0.02025 0.001123,0.0135 -0.010125,0.009 -0.025875,0.0315 -0.01125,0.01125 -0.007875,0.012375 -0.005625,0.01575 -0.0045,0.0135 -0.027,0.01125 -0.0135,0.00225 -0.0135,-0.00225 -0.0135,0.0045 -0.010125,0.019125 0.001123,0.009 0.010125,0.01575 0.00225,0.01125 v 0.009 l -0.00225,0.01125 -0.003373,0.009 -0.003373,0.009 0.003373,0.009 -0.001123,0.01125 -0.007875,0.00562 -0.00225,0.010125 v 0.009 l -0.0045,0.010125 -0.00225,0.00225 -0.014625,0.01125 -0.00675,0.00787 -0.007875,0.012375 0.007875,0.009 0.0135,0.010125 0.03825,0.021375 0.00675,0.014625 0.01125,0.010125 -0.001123,0.0135 -0.00675,0.01125 -0.00675,0.00337 -0.001123,-0.00112 -0.014625,0.0135 -0.005625,0.00787 0.0045,0.009 0.009,0.0045 0.00675,0.00675 0.009,0.00225 0.0045,0.009 -0.00675,0.019125 -0.007875,0.00562 0.005625,0.00225 0.009,0.01125 0.00225,0.014625 0.007875,0.01575 -0.007875,0.01125 -0.00225,0.0135 0.003373,0.014625 -0.003373,0.0135 v 0.01575 l -0.0135,0.0045 -0.005625,0.012375 -0.01125,0.009 h -0.027 l -0.014625,0.010125 -0.007875,0.01125 -0.005625,0.012375 -0.00675,0.027 0.00225,0.01575 -0.0045,0.0135 -0.001123,0.0135 -0.003373,0.0135 -0.010125,0.010125 -0.023625,0.01575 -0.016875,0.00225 -0.012375,-0.0045 -0.009,0.0135 0.001123,0.0135 -0.010125,0.010125 -0.0135,0.00225 -0.01125,-0.010125 -0.0135,0.00225 -0.01125,0.01125 -0.00225,0.012375 0.0011232,0.01575 -0.0045,0.014625 -0.00225,0.0135 0.0045,0.0135 0.02475,0.018 -0.010125,0.016875 v 0.014625 l 0.01125,0.00675 0.0045,0.0135 -0.007875,0.0135 0.007875,0.01125 0.012375,0.00675 0.012375,-0.00562 0.0135,0.00225 0.0045,0.014625 0.014625,0.00337 0.0135,-0.00225 0.00675,0.012375 -0.01125,0.010125 -0.012375,0.0045 v 0.0135 l 0.012375,0.00788 0.001123,0.0135 0.010125,0.010125 0.005625,0.012375 0.00225,0.014625 0.012375,0.00675 -0.01125,0.009 -0.0045,0.0135 -0.010125,0.01125 -0.005625,0.012375 0.0045,0.0135 -0.0225,0.019125 -0.0045,0.0135 0.001123,0.014625 -0.00675,0.0135 -0.01125,0.025875 -0.00225,0.0135 0.019125,0.021375 v 0.0135 l -0.0045,0.027 0.005625,0.01125 0.018,0.02475 0.005625,0.01125 -0.003373,0.0135 -0.010125,0.01125 -0.014625,0.02475 -0.010125,0.010125 -0.012375,0.00675 -0.005625,0.028125 -0.010125,0.01125 -0.016875,0.00675 -0.01125,0.00787 -0.027,0.01125 H 0.0270204 L 0.0247704,4.00384 0.013518,4.0095 0.0033732,3.999375 0,4.014 0.010125,4.02187 0.01575,4.038745 l 0.009,0.00562 H 0.037125 L 0.05175,4.052245 0.064125,4.044365 0.075375,4.03424 0.086625,4.02974 0.088875,4.046615 0.091125,4.07249 0.097875,4.084865 0.1035,4.09724 0.117,4.09049 0.1305,4.08487 l 0.025875,0.0135 0.021375,0.02025 0.009,0.01125 -0.009,0.010125 -0.01125,0.009 -0.007875,0.01125 -0.00675,0.012375 -0.003373,0.012375 0.0135,0.02475 0.009,0.01125 0.0135,0.00675 h 0.012375 l 0.012375,0.00562 0.01125,0.010125 0.012375,0.0045 0.014625,0.00112 0.02475,0.009 0.028125,0.00563 h 0.027 l 0.01125,0.009 0.010125,0.014625 0.010125,0.010125 0.012375,0.00788 0.012375,0.0045 0.005625,0.012375 -0.00675,0.012375 0.005625,0.0135 0.00225,0.014625 0.010125,0.009 0.0135,0.009 0.0135,-0.00112 0.012375,0.00788 0.014625,0.0045 0.0135,0.00562 0.01125,0.00675 0.019125,0.00788 v -0.00112 l 0.0045,-0.0225 0.0315,-0.0585 0.016875,-0.014625 0.02925,-0.0405 0.027,-0.0225 0.01575,-0.02025 0.009,-0.00337 0.045,-0.00563 0.02475,-0.00112 0.016875,-0.00112 0.018,-0.01575 0.0315,-0.00112 0.009,-0.0045 0.02475,0.0045 0.01125,0.0045 L 0.8145,4.21428 0.792,4.260405 0.768375,4.282905 0.7605,4.291905 0.7515,4.294155 0.734625,4.291905 0.7245,4.285155 0.703125,4.286275 0.6975,4.291905 0.694127,4.299785 0.679502,4.296415 l -0.027,0.0045 -0.012375,-0.00225 -0.007875,0.01125 h -0.009 l -0.001123,0.00562 0.00225,0.010125 0.0225,0.010125 0.02025,0.00787 h 0.003373 l 0.007875,-0.00112 0.030375,0.00562 h 0.0045 L 0.730127,4.33803 0.743627,4.32678 0.751502,4.32116 0.775127,4.29641 l 0.0315,-0.0495 0.021375,-0.043875 0.001123,-0.00112 0.001123,0.00225 0.003373,-0.00225 v -0.00112 -0.00112 h 0.001123 l 0.003373,-0.0045 v -0.00112 l 0.009,-0.00675 0.036,-0.018 0.001123,-0.00337 v -0.00563 -0.00112 l 0.0045,-0.01575 0.005625,0.0135 L 0.910115,4.14681 0.950615,4.14344 0.96524,4.13557 0.973115,4.12882 V 4.118695 l 0.009,-0.0045 L 0.99224,4.09957 1.004615,4.087195 1.006865,4.084945 1.02149,4.071445 1.02936,4.055695 1.02149,4.035445 1.01249,4.024195 1.00687,4.025315 V 4.03994 l -0.00337,0.009 -0.010125,0.009 -0.00225,0.00225 H 0.990002 V 4.05794 L 0.986629,4.05682 0.985506,4.05794 0.984383,4.05906 0.98326,4.06018 H 0.982137 0.981014 0.979891 L 0.976518,4.0613 V 4.06242 H 0.975395 0.972022 0.970899 0.969776 0.968653 L 0.96753,4.06354 H 0.966407 L 0.965284,4.06466 H 0.964161 0.963038 V 4.06578 H 0.960788 V 4.0669 H 0.959665 0.958542 V 4.06802 H 0.956292 L 0.945042,4.07139 0.934917,4.07927 H 0.932667 L 0.931544,4.08039 H 0.930421 0.929298 L 0.928175,4.08151 H 0.925925 V 4.08263 H 0.924802 0.923679 V 4.08375 H 0.922556 L 0.921433,4.08487 0.92031,4.08599 V 4.08711 H 0.919187 V 4.08823 L 0.918064,4.08935 H 0.916941 V 4.09047 4.09159 H 0.914691 V 4.09271 L 0.898941,4.09721 0.876441,4.09833 0.868566,4.09496 0.849441,4.08821 0.843816,4.08371 l 0.02925,0.009 h 0.016875 l 0.05175,-0.025875 0.005625,-0.00225 0.030375,-0.01125 h 0.001123 l 0.00225,-0.00337 -0.00225,-0.00562 -0.02925,-0.009 -0.009,-0.009 -0.01575,-0.018 -0.0225,-0.02925 -0.03375,0.025875 H 0.867441 L 0.841566,4.0106 0.833691,4.00272 0.853941,3.99597 h 0.0135 l 0.009,-0.0045 0.00225,-0.00112 0.0135,-0.0135 0.00225,-0.00225 0.0045,-0.00788 -0.01125,-0.023625 -0.009,-0.00675 -0.02025,-0.00675 -0.021375,-0.00337 -0.00675,0.00225 0.010125,0.00788 0.003373,0.00112 0.028125,0.009 0.005625,0.00337 0.001123,0.00563 -0.005625,0.00675 -0.02925,0.00563 -0.012375,-0.00112 -0.019125,-0.00787 -0.009,-0.00675 -0.0135,-0.01575 L 0.774062,3.91724 0.769562,3.904865 0.771812,3.898115 0.788687,3.87899 0.799937,3.87562 0.816812,3.854245 0.820185,3.84187 0.8358732,3.819375 l 0.0315,-0.019125 0.019125,-0.018 0.00675,-0.010125 0.0135,-0.02475 0.0225,-0.02025 L 0.9506232,3.69 0.9629982,3.677625 0.9922482,3.6315 l 0.0315,-0.02475 0.012375,-0.016875 0.00337,-0.0045 0.0135,-0.0135 0.009,-0.01575 0.00788,-0.00225 0.00788,0.0045 0.0045,-0.00112 0.014625,-0.021375 0.0045,-0.0135 0.012375,-0.016875 0.0405,-0.041625 0.016875,-0.010125 0.0225,-0.009 0.0045,-0.00337 0.010125,-0.00788 0.019125,-0.00675 0.046125,-0.009 0.012375,0.0045 0.009,-0.00112 0.036,-0.016875 0.014625,-0.00225 0.023625,0.00112 0.01125,0.00337 0.01125,0.012375 0.00675,0.00112 0.00675,0.01125 0.010125,0.00563 0.00675,0.00225 0.012375,-0.016875 -0.00225,-0.019125 0.0045,-0.0135 0.010125,-0.012375 0.014625,-0.0135 0.028125,-0.023625 0.030375,-0.00787 0.043875,-0.00788 0.010125,-0.0135 0.01125,-0.00112 0.010125,-0.00675 0.030375,-0.00675 0.00788,0.00337 h 0.0135 l 0.01575,0.00563 0.00788,-0.00337 0.009,-0.00112 0.0135,-0.00675 0.018,-0.010125 0.019125,0.0045 0.00225,-0.00112 0.010125,-0.0045 0.023625,-0.019125 0.00562,-0.00337 0.068625,-0.037125 h 0.016875 l 0.028125,-0.009 0.0315,-0.014625 0.041625,-0.009 0.063,-0.012375 0.02475,0.00225 h 0.009 l 0.00562,-0.00112 0.0225,-0.010125 0.030375,-0.0045 0.02025,-0.00225 0.023625,-0.01575 0.019125,-0.00563 0.016875,-0.01125 0.0135,0.00112 0.06975,-0.01575 0.014625,-0.0045 0.023625,-0.01575 0.0225,0.00225 0.0135,-0.0045 0.02475,0.00225 0.025875,-0.019125 0.00675,-0.00225 h 0.019125 l 0.0405,-0.02025 0.02475,-0.00675 0.00787,-0.00225 0.050625,-0.010125 0.072,-0.00337 0.079875,-0.02475 0.018,-0.00788 0.036,-0.01575 0.037125,-0.034875 0.009,-0.018 0.00225,-0.010125 0.00562,-0.0225 0.00675,-0.0315 0.023625,-0.027 0.00225,0.0045 -0.00788,0.01575 0.0045,0.00112 0.0135,-0.016875 0.010125,-0.027 0.01125,-0.0225 0.02475,-0.02475 0.018,-0.023625 0.00563,-0.010125 0.00225,-0.00337 0.01575,-0.02925 0.009,-0.014625 0.018,-0.01575 0.009,-0.00562 0.0315,-0.02025 0.048375,-0.0135 0.041625,-0.016875 0.057375,-0.03375 0.02925,-0.0225 0.059625,-0.043875 0.014625,-0.01125 0.048375,-0.014625 0.0225,-0.018 0.036,-0.021375 h 0.012375 L 3.4031182,2.4379 3.4413682,2.425525 3.4559932,2.4154 l 0.00675,-0.0045 0.036,-0.012375 0.023625,-0.0135 0.036,-0.01125 0.082125,-0.046125 0.030375,-0.00563 0.00787,-0.00225 0.00563,-0.00337 -0.018,-0.02475 0.00337,-0.0045 0.009,0.01125 0.009,0.00787 0.00563,-0.0045 0.00112,-0.00112 0.00337,-0.010125 0.00562,-0.0135 0.023625,-0.014625 0.016875,-0.018 0.03825,-0.01575 0.03375,-0.00337 0.01125,-0.00787 h 0.0135 l 0.0135,-0.01125 0.00675,0.00225 0.010125,-0.00112 0.028125,-0.014625 0.01575,-0.012375 0.03375,-0.036 0.014625,-0.021375 0.014625,-0.012375 0.009,-0.00225 0.009,-0.00112 0.00225,-0.00225 V 2.081295 h 0.00112 l 0.00675,-0.00337 0.023625,-0.00225 0.0045,-0.010125 0.0135,-0.00225 0.0135,-0.01575 0.012375,-0.00562 0.00787,-0.027 0.00788,-0.021375 0.04275,-0.046125 0.018,-0.010125 0.012375,-0.0045 h 0.00112 l 0.00675,0.010125 h 0.0045 l 0.016875,-0.01125 0.00112,-0.01125 0.00337,-0.00337 0.00563,-0.00675 0.0045,0.00112 0.0045,0.00112 0.02025,-0.00337 0.00788,-0.0045 0.0045,-0.00675 0.00675,-0.030375 0.01125,-0.0135 0.01575,-0.00337 h 0.00337 l 0.00562,-0.010125 -0.00112,-0.0045 -0.00112,-0.00337 0.00337,-0.018 0.00337,-0.010125 0.00675,-0.00337 0.00225,-0.01125 -0.00112,-0.012375 0.00337,-0.018 0.00675,-0.012375 0.00675,-0.0045 V 1.73257 l -0.0045,-0.025875 -0.00787,-0.009 -0.01125,0.00112 -0.00563,-0.00562 -0.00112,-0.00113 -0.00788,-0.00788 -0.009,-0.012375 0.00337,-0.037125 -0.00112,-0.00787 -0.00563,-0.0135 -0.01125,-0.00788 h -0.027 l -0.041625,-0.012375 0.0135,-0.00113 0.039375,0.00675 0.02925,-0.00225 0.00112,-0.039375 0.00337,-0.009 0.00675,-0.00337 0.00675,0.00337 0.00788,-0.009 -0.009,-0.028125 -0.00225,-0.0045 -0.019125,-0.032625 -0.0045,-0.00675 h -0.00112 L 4.2457032,1.45018 4.2344532,1.44905 V 1.44343 l 0.00337,-0.00788 -0.0045,-0.009 h -0.0135 l -0.01125,-0.009 -0.00787,-0.00113 -0.0045,0.00787 h -0.0045 l -0.00112,-0.0135 -0.009,-0.00562 -0.00788,-0.00338 V 1.40066 l -0.009,-0.00787 -0.0045,-0.0135 -0.00337,-0.021375 -0.00337,-0.028125 v -0.027 l -0.0045,-0.014625 0.00112,-0.014625 -0.00562,-0.009 -0.016875,0.018 -0.01125,0.0045 -0.00675,0.00787 -0.009,0.009 -0.018,0.00113 -0.01125,0.012375 -0.016875,0.01125 -0.00112,-0.00338 0.012375,-0.012375 0.009,-0.0135 0.023625,-0.00338 0.00675,-0.010125 0.018,-0.00788 0.018,-0.021375 0.00563,-0.00337 0.00788,-0.0135 0.01125,-0.043875 -0.016875,-0.010125 -0.00337,-0.00675 0.0045,-0.00113 0.018,0.00675 0.021375,-0.0225 0.0225,-0.019125 0.010125,-0.00337 h 0.0135 l 0.00337,0.00562 0.0045,0.00675 0.00112,0.012375 0.0045,0.00562 0.014625,0.00225 0.02025,0.018 0.00675,0.00113 0.009,0.012375 0.00563,-0.00675 0.0045,-0.009 0.00225,-0.016875 0.00337,-0.00225 0.00788,0.00225 0.0045,-0.00338 0.00337,-0.00113 h 0.00112 l 0.0045,0.01575 0.00788,0.00562 0.01575,0.00113 0.00339,0.00223 0.00225,-0.00562 -0.00225,-0.00338 -0.01125,-0.0045 -0.00337,-0.0135 0.0315,-0.00787 0.010125,-0.012375 0.00563,-0.01125 -0.0135,-0.02025 V 1.1025 l 0.00225,-0.0045 0.00788,0.00337 0.01125,0.00337 0.00225,-0.00675 -0.010125,-0.009 -0.00113,-0.00562 0.00675,-0.009 0.00225,-0.00225 -0.00337,-0.0045 0.00225,-0.0045 0.009,-0.00225 0.01125,-0.014625 0.018,-0.00562 0.00225,-0.00562 -0.00225,-0.0045 -0.009,-0.00113 -0.00563,-0.00675 H 4.4167482 L 4.41,1.017 4.399875,1.0215 4.3875,1.006875 4.38525,0.99900002 h -0.009 l -0.010125,-0.009 h -0.00225 l -0.00337,0.01125 h -0.00675 -0.00225 l -0.00675,0.009 -0.00337,-0.00562 -0.00675,-0.00338 -0.00563,-0.00675 0.00112,-0.01125 -0.00675,-0.007875 -0.00337,0.001125 -0.0135,0.00225 -0.00788,-0.00675 -0.00788,0.005625 H 4.27837 l -0.00337,0.007875 0.00337,0.010125 -0.00563,0.00675 h -0.0045 l -0.018,-0.019125 0.00338,-0.007875 -0.01125,-0.003375 -0.019125,-0.021375 0.0045,-0.007875 -0.00112,-0.003375 -0.009,-0.00225 -0.00337,-0.003375 0.00225,-0.003375 -0.0045,-0.010125 0.00225,-0.010125 0.009,-0.010125 -0.00112,-0.003375 -0.00788,0.001125 -0.00337,-0.0045 0.01125,-0.016875 -0.00337,-0.003375 -0.00788,0.00225 v -0.003375 l 0.018,-0.021375 0.00225,-0.01125 -0.00225,-0.0045 -0.00788,-0.001125 -0.00225,-0.0045 0.01125,-0.01125 -0.00788,-0.003375 -0.00562,-0.001125 v -0.001125 H 4.20188 4.20076 l -0.02025,-0.001125 -0.014625,-0.00225 -0.00675,0.001125 h -0.00787 l -0.00788,0.005625 -0.00675,0.005625 -0.00112,0.003375 -0.00675,0.003375 -0.00563,-0.001125 h -0.00112 v -0.001125 l -0.00675,-0.001125 -0.00788,-0.00225 -0.0135,-0.01125 -0.00337,-0.00225 h -0.00112 l -0.00563,-0.010125 -0.00337,-0.00675 -0.0045,-0.003375 h -0.00112 l -0.00225,-0.00225 -0.00788,-0.005625 -0.00225,-0.00225 v -0.001125 l -0.00787,-0.01575 -0.0045,-0.012375 -0.00337,-0.012375 -0.00337,-0.00225 h -0.00675 l -0.009,0.005625 -0.014625,0.009 -0.00563,-0.001125 h -0.0045 l -0.0045,-0.0045 -0.0495,0.014625 -0.012375,-0.005625 H 3.91728 l -0.032625,0.019125 -0.009,0.003375 -0.015757,0.001125 -0.037125,-0.005625 -0.012375,-0.001125 -0.01125,0.001125 -0.00562,0.003375 -0.00675,0.0045 -0.05175,0.050625 -0.012375,0.027 -0.010125,0.00675 h -0.02925 l -0.04275,-0.01125 h -0.00225 -0.0135 l -0.028125,0.00675 -0.01575,0.0045 -0.025875,0.016875 -0.027,0.027 -0.01125,0.007875 -0.00563,0.009 0.00675,0.025875 0.009,0.009 0.0135,0.0135 0.00225,0.0045 0.00337,0.00675 0.00112,0.00675 -0.00225,0.005625 -0.009,0.005625 -0.018,0.00338 -0.016875,-0.00225 -0.012375,-0.00225 -0.048375,-0.016875 -0.0405,-0.00675 h -0.018 l -0.037125,0.02475 -0.02025,0.00225 h -0.00112 l -0.0135,-0.00338 -0.019117,-0.001125 -0.01125,-0.00675 -0.00337,-0.001125 -0.045,-0.025875 -0.009,-0.005625 -0.00225,-0.005625 -0.00112,-0.001125 v -0.001125 l -0.00901,-0.00675 -0.01125,-0.014625 -0.021375,-0.02475 -0.084375,-0.030375 -0.01125,-0.003375 -0.0045,-0.00225 -0.00337,-0.001125 -0.0135,-0.007875 -0.03375,-0.023625 -0.0675,-0.007875 -0.00337,-0.001125 -0.028125,0.005625 -0.01575,0.00675 -0.0135,0.01125 -0.019125,0.007875 H 2.866536 l -0.010125,-0.003375 -0.018,-0.007875 h -0.00112 l -0.034875,-0.003375 -0.025875,0.028125 -0.030375,0.0495 -0.025875,0.023625 -0.0315,0.018 -0.01575,0.0045 -0.016875,0.003375 -0.02025,0.00225 -0.0225,-0.00225 -0.0135,-0.0045 h -0.00112 l -0.00225,-0.003375 -0.00675,-0.00675 -0.039375,-0.02025 -0.009,-0.009 -0.00225,-0.0045 -0.00562,-0.0135 0.00112,-0.023625 -0.0045,-0.016875 -0.00675,-0.021375 -0.00562,-0.009 -0.00112,-0.003375 -0.00112,-0.00225 v -0.001125 l -0.00112,-0.007875 -0.00112,-0.003375 -0.00225,-0.00225 -0.00337,-0.0045 -0.00563,-0.00675 -0.00337,-0.0045 -0.01575,-0.012375 -0.016875,-0.00225 -0.00675,0.003375 -0.00675,0.0045 h -0.00112 l -0.011281,-0.001125 -0.054,-0.03375 -0.012375,-0.014625 -0.00792,-0.007875 -0.00562,-0.003375 -0.019125,-0.012375 h -0.08325 l -0.0045,-0.001125 -0.00337,-0.001125 -0.03825,-0.012375 -0.01125,-0.012375 -0.009,0.00675 -0.021375,0.01575 -0.0135,-0.00225 -0.02475,-0.018 -0.00563,-0.001125 -0.00337,0.0045 -0.00337,0.009 -0.00337,0.01575 0.00112,0.005625 -0.025875,0.02925 -0.02475,0.003375 -0.034875,0.014625 -0.02025,0.0135 -0.02475,-0.00225 -0.032625,0.028125 -0.043875,0.009 H 1.9069 l -0.055125,-0.00675 h -0.00337 l -0.00225,-0.001125 h -0.00225 l -0.00789,-0.003375 -0.016875,-0.0135 -0.00675,-0.037125 -0.023625,-0.02925 -0.00112,-0.0045 0.00112,-0.0045 0.00112,-0.005625 0.039375,-0.03375 0.00337,-0.005625 0.00225,-0.01125 v -0.007875 H 1.83376 l -0.021375,-0.037125 -0.009,-0.003375 -0.018,0.0045 -0.00675,-0.0045 -0.00112,-0.0045 -0.00225,-0.019125 0.010125,-0.019125 0.00337,-0.010125 0.00225,-0.012375 -0.00337,-0.009 -0.00562,-0.0135 v -0.00675 l 0.012375,-0.010125 0.0045,-0.012375 0.00225,-0.005625 -0.034875,-0.088875 -0.0405,-0.072 -0.030375,-0.021375 -0.00788,-0.009 v -0.0135 l -0.0045,-0.007875 -0.01125,-0.00675 h -0.018 -0.06975 l -0.045,0.0045 -0.00112,-0.001125 -0.025875,-0.009 H 1.5109 l -0.01125,-0.001125 -0.02925,0.007875 -0.0135,0.00675 -0.02475,0.01125 -0.009,0.001125 -0.010127,-0.00225 -0.00562,-0.00225 -0.028125,-0.023625 -0.01125,-0.023625 -0.00787,-0.027 -0.00788,-0.009 -0.00112,-0.001125 -0.03375,-0.039375 -0.014625,-0.012375 -0.052875,-0.00225 -0.00112,-0.001125 -0.0135,-0.0045 h -0.00112 l -0.038268,0.003375 -0.021375,-0.00225 h -0.00112 -0.00112 l -0.02475,-0.010125 h -0.00112 l -0.00337,-0.010125 -0.00337,-0.010125 -0.01125,-0.005625 -0.00675,0.001125 h -0.00112 l -0.0225,0.02025 -0.00787,0.00225 -0.037159,-0.0135 -0.034875,-0.02475 -0.052875,-0.02925 -0.028125,-0.007875 -0.04725,-0.01575 -0.014625,-0.001125 -0.01575,-0.00225 -0.04275,-0.02025 -0.00675,-0.003375 L 0.762759,0 Z"
     id="rect4" />
  <path
     style="fill:#000000;fill-opacity:1;stroke-width:1.00001;stroke-dasharray:none"
     d="m 0.8009982,0.47925 0.0045,0.0045 0.014625,0.001125 0.0135,-0.005625 z m 0.032625,0 0.018,0.00675 0.00675,0.009 V 0.504 L 0.8572502,0.513 0.8505002,0.51975 0.8471272,0.54 v 0.01125 l -0.001123,0.021375 -0.00675,0.018 -0.00675,0.00675 -0.009,0.018 -0.003373,0.010125 v 0.009 l -0.009,0.003375 -0.0135,0.0135 -0.003373,0.01125 0.005625,0.007875 0.01125,0.01125 0.001123,0.014625 -0.02475,0.016875 -0.0135,-0.007875 -0.0135,0.005625 -0.00675,0.0135 V 0.738 l 0.00675,0.01125 0.01575,0.014625 v 0.009 l -0.010125,0.007875 0.0045,0.010125 -0.001123,0.012375 0.009,0.007875 0.001123,0.009 0.009,0.003375 0.00675,0.009 0.010125,0.005625 0.003373,0.009 0.005625,0.007875 0.003373,0.009 0.00225,0.01125 -0.001123,0.01125 0.0045,0.018 0.005625,0.01125 -0.0045,0.009 0.0045,0.010125 -0.005625,0.009 0.005625,0.012375 -0.001123,0.01125 0.001123,0.0045 h 1.78425 l -0.0135,-0.0045 h -0.00112 l -0.00225,-0.003375 -0.00675,-0.00675 -0.039375,-0.02025 -0.009,-0.009 -0.00225,-0.0045 -0.00563,-0.0135 0.00112,-0.023625 -0.0045,-0.016875 -0.00675,-0.021375 -0.00563,-0.009 -0.00112,-0.003375 -0.00112,-0.00225 V 0.8325 L 2.5143842,0.824625 2.5132642,0.82125 2.5110142,0.819 2.5076442,0.8145 2.5020242,0.80775 2.4986542,0.80325 2.4829042,0.790875 2.4660292,0.788625 2.4592792,0.792 2.4525292,0.7965 h -0.00112 l -0.01125,-0.001125 -0.054,-0.03375 L 2.3737662,0.747 2.3658762,0.739125 2.3602562,0.73575 2.3411312,0.723375 h -0.08325 l -0.0045,-0.001125 -0.00337,-0.001125 -0.03825,-0.012375 -0.01125,-0.012375 -0.009,0.00675 -0.021375,0.01575 -0.0135,-0.00225 -0.02475,-0.018 -0.00563,-0.001125 -0.00337,0.0045 -0.00337,0.009 -0.00337,0.01575 0.00112,0.005625 -0.025875,0.02925 -0.02475,0.003375 -0.034875,0.014625 -0.02025,0.0135 -0.02475,-0.00225 L 1.9541412,0.819 1.9102662,0.828 h -0.00337 L 1.8517712,0.82125 h -0.00337 l -0.00225,-0.001125 h -0.00225 l -0.00789,-0.003375 -0.016875,-0.0135 -0.00675,-0.037125 -0.023625,-0.02925 -0.00112,-0.0045 0.00112,-0.0045 0.00112,-0.005625 0.039375,-0.03375 0.00337,-0.005625 0.00225,-0.01125 V 0.66375 h -0.00112 l -0.021375,-0.037125 -0.009,-0.003375 -0.018,0.0045 -0.00675,-0.0045 -0.00112,-0.0045 L 1.7752612,0.599625 1.7853862,0.5805 1.7887562,0.570375 1.7910062,0.558 1.7876362,0.549 1.7820162,0.5355 V 0.52875 l 0.012375,-0.010125 0.0045,-0.012375 0.00225,-0.005625 -0.00788,-0.021375 h -0.959625 z m 3.202875,0.255375 -0.009,0.005625 -0.014625,0.009 -0.00562,-0.001125 h -0.0045 l -0.0045,-0.0045 -0.0495,0.014625 -0.012375,-0.005625 H 3.9172532 L 3.8846282,0.77175 3.8756282,0.775125 3.8598732,0.77625 3.8227482,0.770625 3.8103732,0.7695 3.7991232,0.770625 3.7935032,0.774 l -0.00675,0.0045 -0.05175,0.050625 -0.012375,0.027 -0.010125,0.00675 h -0.02925 l -0.04275,-0.01125 h -0.00225 -0.0135 l -0.028125,0.00675 -0.01575,0.0045 -0.025875,0.016875 -0.027,0.027 -0.01125,0.007875 -0.00563,0.009 0.00675,0.025875 0.009,0.009 0.0135,0.0135 h 0.702 l -0.019125,-0.021375 0.0045,-0.007875 -0.00112,-0.003375 -0.009,-0.00225 -0.00337,-0.003375 0.00225,-0.003375 -0.0045,-0.010125 0.00225,-0.010125 L 4.2232582,0.9 4.2221382,0.896625 4.2142582,0.89775 4.2108882,0.89325 4.2221382,0.876375 4.2187682,0.873 4.2108882,0.87525 V 0.871875 l 0.018,-0.021375 0.00225,-0.01125 -0.00225,-0.0045 -0.00788,-0.001125 -0.00225,-0.0045 0.01125,-0.01125 L 4.2221282,0.8145 4.2165082,0.813375 V 0.81225 h -0.014625 -0.00112 L 4.1805132,0.811125 4.1658882,0.808875 4.1591382,0.81 h -0.00787 l -0.00788,0.005625 -0.00675,0.005625 -0.00112,0.003375 -0.00675,0.003375 -0.00563,-0.001125 h -0.00112 V 0.82575 l -0.00675,-0.001125 -0.00788,-0.00225 -0.0135,-0.01125 -0.00337,-0.00225 h -0.00112 L 4.0837682,0.79875 4.0803982,0.792 4.0758982,0.788625 h -0.00112 L 4.0725282,0.786375 4.0646482,0.78075 4.0623982,0.7785 V 0.777375 l -0.00787,-0.01575 -0.0045,-0.012375 -0.00337,-0.012375 -0.00337,-0.00225 h -0.00675 z M 2.9553732,0.828 l -0.028125,0.005625 -0.01575,0.00675 -0.0135,0.01125 -0.019125,0.007875 h -0.012375 l -0.010125,-0.003375 -0.018,-0.007875 h -0.00112 L 2.8023782,0.844875 2.7765032,0.873 l -0.030375,0.0495 -0.025875,0.023625 -0.0315,0.018 -0.01575,0.0045 L 2.6561282,0.972 h 0.586125 L 3.2310032,0.96525 3.2220032,0.959625 3.2197532,0.954 3.2186332,0.952875 V 0.95175 L 3.2096232,0.945 3.1983732,0.930375 3.1769982,0.905625 3.0926232,0.87525 3.0813732,0.871875 3.0768732,0.869625 3.0735032,0.8685 3.0600032,0.860625 3.0262532,0.837 2.9587532,0.829125 2.9553832,0.828 Z m -2.205,0.637875 -0.03375,0.108 -0.010125,0.010125 -0.019125,0.025875 0.00675,0.00675 -0.030375,0.055125 -0.0135,0.012375 -0.007875,0.012375 -0.003373,0.010125 v 0.00112 l -0.0045,0.009 -0.0045,0.009 -0.009,0.0045 -0.0135,-0.00337 -0.014625,0.009 -0.018,0.025875 -0.010125,0.01125 0.001123,0.0135 0.012375,0.00562 0.009,0.01125 0.02025,0.009 0.001123,0.00562 0.003373,0.009 v 0.0135 l -0.003373,0.027 0.0045,0.016875 0.005625,0.01125 -0.009,0.012375 -0.021375,0.012375 0.00225,0.010125 v 0.0045 l -0.016875,0.0045 -0.016875,-0.00112 -0.010125,0.01125 -0.00225,0.009 h 3.5775 l 0.010125,-0.01125 0.018,-0.010125 0.012375,-0.0045 h 0.00112 l 0.00675,0.010125 h 0.0045 l 0.016875,-0.01125 0.00112,-0.01125 0.00337,-0.00337 0.00562,-0.00675 0.0045,0.00112 0.0045,0.00112 0.02025,-0.00337 0.00788,-0.0045 0.0045,-0.00675 0.00675,-0.030375 0.01125,-0.0135 0.01575,-0.00337 h 0.00337 l 0.00563,-0.010125 -0.00112,-0.0045 -0.00112,-0.00337 0.00337,-0.018 0.00337,-0.010125 0.00675,-0.00337 0.00225,-0.01125 -0.00112,-0.012375 0.00337,-0.018 0.00675,-0.012375 0.00675,-0.0045 V 1.73251 l -0.0045,-0.025875 -0.00787,-0.009 -0.01125,0.00112 -0.00562,-0.00562 -0.00112,-0.00113 -0.00788,-0.00788 -0.009,-0.012375 0.00337,-0.037125 -0.00112,-0.00788 -0.00563,-0.0135 -0.01125,-0.00787 h -0.027 L 4.1849862,1.593 l 0.0135,-0.00113 0.039375,0.00675 0.02925,-0.00225 0.00112,-0.039375 0.00337,-0.009 0.00675,-0.00338 0.00675,0.00338 0.00788,-0.009 -0.009,-0.028125 -0.00225,-0.0045 -0.019125,-0.032625 -0.0045,-0.00675 h -0.00112 l -0.00112,-0.00113 h -3.5055 z M 0.3791232,2.4525 0.37575,2.457 v 0.0135 l 0.003373,0.0135 0.021375,0.02025 0.001123,0.0135 -0.010125,0.009 -0.025875,0.0315 -0.01125,0.01125 -0.007875,0.012375 -0.005625,0.01575 -0.0045,0.0135 -0.027,0.01125 -0.0135,0.00225 -0.0135,-0.00225 -0.0135,0.0045 L 0.258746,2.646 0.259869,2.655 0.269994,2.67075 0.272244,2.682 v 0.009 l -0.00225,0.01125 -0.003373,0.009 -0.003373,0.009 0.003373,0.009 L 0.265498,2.7405 0.257623,2.74613 0.255373,2.756255 v 0.009 l -0.0045,0.010125 -0.00225,0.00225 -0.014625,0.01125 -0.00675,0.00787 -0.007875,0.012375 0.007875,0.009 0.0135,0.010125 0.03825,0.021375 0.00675,0.014625 0.01125,0.010125 -0.001123,0.0135 -0.00675,0.01125 -0.00675,0.00337 -0.001123,-0.00112 -0.014625,0.0135 -0.005625,0.00788 0.0045,0.009 0.009,0.0045 0.00675,0.00675 0.009,0.00225 h 2.505375 l 0.00787,-0.01575 0.00225,-0.010125 0.00562,-0.0225 0.00675,-0.0315 0.023625,-0.027 0.00225,0.0045 -0.00788,0.01575 0.0045,0.00112 0.0135,-0.016875 0.010125,-0.027 0.01125,-0.0225 0.02475,-0.02475 0.018,-0.023625 0.00563,-0.010125 0.00225,-0.00337 0.01575,-0.02925 0.009,-0.014625 0.018,-0.01575 0.009,-0.00563 L 3.009367,2.646 3.057742,2.6325 3.099367,2.615625 3.156742,2.581875 3.185992,2.559375 3.245617,2.5155 3.260242,2.50425 3.308617,2.489625 3.331117,2.471625 3.363742,2.4525 H 0.379117 Z m -0.286875,0.986625 v 0.00112 l -0.007875,0.0135 0.007875,0.01125 0.012375,0.00675 0.012375,-0.00562 0.0135,0.00225 0.0045,0.014625 0.014625,0.00337 0.0135,-0.00225 0.00675,0.012375 -0.01125,0.010125 -0.012375,0.0045 v 0.0135 l 0.012375,0.00787 0.001123,0.0135 0.010125,0.010125 0.005625,0.012375 0.00225,0.014625 0.012375,0.00675 -0.01125,0.009 -0.0045,0.0135 -0.010125,0.01125 -0.005625,0.012375 0.0045,0.0135 -0.0225,0.019125 -0.0045,0.0135 0.001123,0.014625 -0.00675,0.0135 -0.01125,0.025875 -0.00225,0.0135 0.019125,0.021375 v 0.0135 l -0.0045,0.027 0.005625,0.01125 0.018,0.02475 0.005625,0.01125 -0.003373,0.0135 -0.010125,0.01125 -0.014625,0.02475 -0.010125,0.010125 -0.012375,0.00675 -0.001123,0.00787 h 0.678375 l -0.0135,-0.01575 -0.0045,-0.012375 0.00225,-0.00675 0.016875,-0.019125 0.01125,-0.00337 0.016875,-0.021367 0.003373,-0.012375 0.0157518,-0.022498 0.0315,-0.019125 0.019125,-0.018 0.00675,-0.010125 0.0135,-0.02475 0.0225,-0.02025 L 0.9506232,3.69 0.9629982,3.677625 0.9922482,3.6315 l 0.0315,-0.02475 0.012375,-0.016875 0.00337,-0.0045 0.0135,-0.0135 0.009,-0.01575 0.00788,-0.00225 0.00788,0.0045 0.0045,-0.00112 0.014625,-0.021375 0.0045,-0.0135 0.012375,-0.016875 0.0405,-0.041625 0.016875,-0.010125 0.0225,-0.009 0.0045,-0.00337 0.00337,-0.00225 h -1.10925 z m 0.74475,0.487125 -0.00675,0.00225 0.005625,0.0045 h 0.032625 L 0.8583732,3.92963 0.8369982,3.92626 Z"
     id="path6" />
</svg>
