<?xml version="1.0" encoding="UTF-8" standalone="no"?>
<!-- Created with Inkscape (http://www.inkscape.org/) -->

<svg
   width="325.34448mm"
   height="317.23749mm"
   viewBox="0 0 325.34448 317.23749"
   version="1.1"
   id="svg1"
   xml:space="preserve"
   xmlns="http://www.w3.org/2000/svg"
   xmlns:svg="http://www.w3.org/2000/svg"><defs
     id="defs1" /><g
     id="layer1"
     transform="translate(-922.89962,-172.3856)"><g
       id="g4"
       transform="translate(-1.8929912)"
       style="display:none"><g
         id="g3"><g
           id="g2"
           transform="translate(0.30063314)"><path
             style="fill:none;stroke:#ffffff;stroke-width:12;stroke-linecap:round;stroke-linejoin:round;stroke-miterlimit:7.2;stroke-dasharray:none;stroke-opacity:1;paint-order:normal"
             id="rect2"
             width="40.077702"
             height="4.7812123"
             x="8.0136814"
             y="141.42656"
             ry="2.3906062"
             transform="rotate(25.131934,83.026764,2448.8736)"
             d="m 10.404288,141.42656 h 35.296489 c 1.324396,0 2.390606,1.06621 2.390606,2.39061 0,1.32439 -1.06621,2.3906 -2.390606,2.3906 H 10.404288 c -1.3243962,0 -2.3906066,-1.06621 -2.3906066,-2.3906 0,-1.3244 1.0662104,-2.39061 2.3906066,-2.39061 z" /><path
             style="fill:none;stroke:#ffffff;stroke-width:12;stroke-linecap:round;stroke-linejoin:round;stroke-miterlimit:7.2;stroke-dasharray:none;stroke-opacity:1;paint-order:normal"
             id="rect2-2"
             width="40.077702"
             height="4.7812123"
             x="8.0136814"
             y="141.42656"
             ry="2.3906062"
             transform="matrix(0.90901706,-0.4167589,-0.4167589,-0.90901706,1046.6567,495.95154)"
             d="m 10.404288,141.42656 h 35.296489 c 1.324396,0 2.390606,1.06621 2.390606,2.39061 0,1.32439 -1.06621,2.3906 -2.390606,2.3906 H 10.404288 c -1.3243962,0 -2.3906066,-1.06621 -2.3906066,-2.3906 0,-1.3244 1.0662104,-2.39061 2.3906066,-2.39061 z" /></g><ellipse
           style="fill:#ffffff;fill-opacity:1;stroke:#ffffff;stroke-width:11.1312;stroke-linecap:round;stroke-linejoin:round;stroke-miterlimit:7.2;stroke-dasharray:none;stroke-opacity:1;paint-order:normal"
           id="path3"
           cx="1164.8806"
           cy="345.65497"
           rx="16.159088"
           ry="15.849958" /><rect
           style="fill:#ff7ac6;fill-opacity:1;stroke:none;stroke-width:1.67146;stroke-opacity:1;paint-order:normal"
           id="rect3"
           width="43.869896"
           height="20.187838"
           x="990.05634"
           y="374.73334"
           ry="10.093919" /><rect
           style="fill:#ff7ac6;fill-opacity:1;stroke:none;stroke-width:1.67146;stroke-opacity:1;paint-order:normal"
           id="rect3-6"
           width="43.869896"
           height="20.187838"
           x="1142.9457"
           y="374.78098"
           ry="10.093919" /></g><path
         style="fill:none;stroke:#ffffff;stroke-width:17.5829;stroke-linecap:round;stroke-linejoin:round;stroke-dasharray:none;stroke-opacity:1"
         id="path1"
         d="m 1122.1797,384.80421 a 40.085236,42.546478 0 0 1 -34.7149,21.27324 40.085236,42.546478 0 0 1 -34.7148,-21.27324" /></g><rect
       style="fill:none;stroke:#000000;stroke-width:25;stroke-linecap:round;stroke-linejoin:round;stroke-miterlimit:7.2;stroke-dasharray:none;stroke-opacity:1;paint-order:normal"
       id="rect4"
       width="300.34445"
       height="292.23749"
       x="935.3996"
       y="184.8856"
       ry="146.11874"
       rx="150.17223" /><rect
       style="display:none;fill:#ff7ac6;fill-opacity:1;stroke:none;stroke-width:1.67146;stroke-opacity:1;paint-order:normal"
       id="rect5"
       width="43.869896"
       height="20.187838"
       x="988.16333"
       y="374.73334"
       ry="10.093919" /><rect
       style="display:none;fill:#ff7ac6;fill-opacity:1;stroke:none;stroke-width:1.67146;stroke-opacity:1;paint-order:normal"
       id="rect6"
       width="43.869896"
       height="20.187838"
       x="1141.0527"
       y="374.78098"
       ry="10.093919" /><g
       id="g5"
       transform="translate(-1.5923581)"
       style="display:none"><path
         style="fill:none;stroke:#ffffff;stroke-width:12;stroke-linecap:round;stroke-linejoin:round;stroke-miterlimit:7.2;stroke-dasharray:none;stroke-opacity:1;paint-order:normal"
         id="path4"
         width="40.077702"
         height="4.7812123"
         x="8.0136814"
         y="141.42656"
         ry="2.3906062"
         transform="rotate(25.131934,83.026764,2448.8736)"
         d="m 10.404288,141.42656 h 35.296489 c 1.324396,0 2.390606,1.06621 2.390606,2.39061 0,1.32439 -1.06621,2.3906 -2.390606,2.3906 H 10.404288 c -1.3243962,0 -2.3906066,-1.06621 -2.3906066,-2.3906 0,-1.3244 1.0662104,-2.39061 2.3906066,-2.39061 z" /><path
         style="fill:none;stroke:#ffffff;stroke-width:12;stroke-linecap:round;stroke-linejoin:round;stroke-miterlimit:7.2;stroke-dasharray:none;stroke-opacity:1;paint-order:normal"
         id="path5"
         width="40.077702"
         height="4.7812123"
         x="8.0136814"
         y="141.42656"
         ry="2.3906062"
         transform="matrix(0.90901706,-0.4167589,-0.4167589,-0.90901706,1046.6567,495.95154)"
         d="m 10.404288,141.42656 h 35.296489 c 1.324396,0 2.390606,1.06621 2.390606,2.39061 0,1.32439 -1.06621,2.3906 -2.390606,2.3906 H 10.404288 c -1.3243962,0 -2.3906066,-1.06621 -2.3906066,-2.3906 0,-1.3244 1.0662104,-2.39061 2.3906066,-2.39061 z" /></g><ellipse
       style="display:none;fill:#ffffff;fill-opacity:1;stroke:#ffffff;stroke-width:11.1312;stroke-linecap:round;stroke-linejoin:round;stroke-miterlimit:7.2;stroke-dasharray:none;stroke-opacity:1;paint-order:normal"
       id="ellipse5-5"
       cx="1010.6275"
       cy="345.65497"
       rx="16.159088"
       ry="15.849958" /><g
       id="g8"
       style="fill:#000000;fill-opacity:1;stroke:#000000;stroke-opacity:1"
       transform="translate(-4.1914215)"><ellipse
         style="fill:#000000;fill-opacity:1;stroke:#000000;stroke-width:12;stroke-linecap:round;stroke-linejoin:round;stroke-miterlimit:7.2;stroke-dasharray:none;stroke-opacity:1;paint-order:normal"
         id="ellipse5"
         cx="1162.9877"
         cy="345.65497"
         rx="16.159088"
         ry="15.849958" /><ellipse
         style="fill:#000000;fill-opacity:1;stroke:#000000;stroke-width:12;stroke-linecap:round;stroke-linejoin:round;stroke-miterlimit:7.2;stroke-dasharray:none;stroke-opacity:1;paint-order:normal"
         id="ellipse5-2"
         cx="1016.5388"
         cy="345.65497"
         rx="16.159088"
         ry="15.849958" /></g><path
       style="fill:none;stroke:#000000;stroke-width:20;stroke-linecap:round;stroke-linejoin:round;stroke-dasharray:none;stroke-opacity:1"
       id="path6"
       d="m 1120.2867,378.45412 a 40.085236,42.546478 0 0 1 -34.7148,21.27324 40.085236,42.546478 0 0 1 -34.7148,-21.27324" /></g></svg>
