<?xml version="1.0" encoding="UTF-8" standalone="no"?>
<!-- Created with Inkscape (http://www.inkscape.org/) -->

<svg
   width="299.99997mm"
   height="299.99997mm"
   viewBox="0 0 299.99997 299.99997"
   version="1.1"
   id="svg1"
   xml:space="preserve"
   sodipodi:docname="wysi.svg"
   inkscape:export-filename="wysi_alt.png"
   inkscape:export-xdpi="96"
   inkscape:export-ydpi="96"
   inkscape:version="1.3.2 (091e20ef0f, 2023-11-25)"
   xmlns:inkscape="http://www.inkscape.org/namespaces/inkscape"
   xmlns:sodipodi="http://sodipodi.sourceforge.net/DTD/sodipodi-0.dtd"
   xmlns="http://www.w3.org/2000/svg"
   xmlns:svg="http://www.w3.org/2000/svg"><sodipodi:namedview
     id="namedview1"
     pagecolor="#505050"
     bordercolor="#ffffff"
     borderopacity="1"
     inkscape:showpageshadow="0"
     inkscape:pageopacity="0"
     inkscape:pagecheckerboard="1"
     inkscape:deskcolor="#505050"
     inkscape:document-units="mm"
     inkscape:zoom="0.26634725"
     inkscape:cx="566.92908"
     inkscape:cy="565.05183"
     inkscape:window-width="955"
     inkscape:window-height="1056"
     inkscape:window-x="2040"
     inkscape:window-y="421"
     inkscape:window-maximized="1"
     inkscape:current-layer="svg1" /><defs
     id="defs1" /><rect
     style="fill:#faf1df;fill-opacity:1;stroke:#faf1df;stroke-width:10.8022;stroke-linecap:round;stroke-linejoin:round;stroke-opacity:1"
     id="rect1"
     width="289.19778"
     height="289.19778"
     x="5.4011002"
     y="5.4011002"
     ry="0"
     rx="0" /><g
     id="g1"
     transform="translate(0.52916667,4.7625002)"><g
       id="g7"
       transform="translate(-7.66685,-7.8910701)"
       style="display:inline"><rect
         style="display:inline;fill:#ff7ac6;fill-opacity:1;stroke:none;stroke-width:1.67146;stroke-opacity:1;paint-order:normal"
         id="rect5"
         width="43.869896"
         height="20.187838"
         x="62.507515"
         y="206.58101"
         ry="10.093919" /><rect
         style="display:inline;fill:#ff7ac6;fill-opacity:1;stroke:none;stroke-width:1.67146;stroke-opacity:1;paint-order:normal"
         id="rect6"
         width="43.869896"
         height="20.187838"
         x="208.95627"
         y="206.58101"
         ry="10.093919" /></g><path
       style="fill:none;stroke:#000000;stroke-width:17.583;stroke-linecap:round;stroke-linejoin:round;stroke-dasharray:none;stroke-opacity:1"
       id="path6"
       d="m 183.35867,190.08974 a 38.519321,34.221226 0 0 1 -33.35868,17.11061 38.519321,34.221226 0 0 1 -33.35868,-17.11061" /><g
       id="g8"
       transform="translate(-939.76325,-189.30494)"
       style="stroke:#000000;stroke-opacity:1"><ellipse
         style="fill:#000000;fill-opacity:1;stroke:#000000;stroke-width:12;stroke-linecap:round;stroke-linejoin:round;stroke-miterlimit:7.2;stroke-dasharray:none;stroke-opacity:1;paint-order:normal"
         id="ellipse5"
         cx="1162.9877"
         cy="345.65497"
         rx="16.159088"
         ry="15.849958" /><ellipse
         style="display:none;fill:#ffffff;fill-opacity:1;stroke:#000000;stroke-width:12;stroke-linecap:round;stroke-linejoin:round;stroke-miterlimit:7.2;stroke-dasharray:none;stroke-opacity:1;paint-order:normal"
         id="ellipse5-2"
         cx="1016.5388"
         cy="345.65497"
         rx="16.159088"
         ry="15.849958" /><g
         id="g5"
         transform="translate(5.511985,-1.1010311)"
         style="display:inline;stroke:#000000;stroke-opacity:1"><path
           style="fill:none;stroke:#000000;stroke-width:12;stroke-linecap:round;stroke-linejoin:round;stroke-miterlimit:7.2;stroke-dasharray:none;stroke-opacity:1;paint-order:normal"
           id="path4"
           width="40.077702"
           height="4.7812123"
           x="8.0136814"
           y="141.42656"
           ry="2.3906062"
           transform="rotate(25.131934,83.026764,2448.8736)"
           d="m 10.404288,141.42656 h 35.296489 c 1.324396,0 2.390606,1.06621 2.390606,2.39061 0,1.32439 -1.06621,2.3906 -2.390606,2.3906 H 10.404288 c -1.3243962,0 -2.3906066,-1.06621 -2.3906066,-2.3906 0,-1.3244 1.0662104,-2.39061 2.3906066,-2.39061 z" /><path
           style="fill:none;stroke:#000000;stroke-width:12;stroke-linecap:round;stroke-linejoin:round;stroke-miterlimit:7.2;stroke-dasharray:none;stroke-opacity:1;paint-order:normal"
           id="path5"
           width="40.077702"
           height="4.7812123"
           x="8.0136814"
           y="141.42656"
           ry="2.3906062"
           transform="matrix(0.90901706,-0.4167589,-0.4167589,-0.90901706,1046.6567,495.95154)"
           d="m 10.404288,141.42656 h 35.296489 c 1.324396,0 2.390606,1.06621 2.390606,2.39061 0,1.32439 -1.06621,2.3906 -2.390606,2.3906 H 10.404288 c -1.3243962,0 -2.3906066,-1.06621 -2.3906066,-2.3906 0,-1.3244 1.0662104,-2.39061 2.3906066,-2.39061 z" /></g></g></g></svg>
