<svg xmlns="http://www.w3.org/2000/svg" width="152" height="152" viewBox="0 0 152 152" version="1.1">
    <path d="" stroke="none" fill="#000" fill-rule="evenodd"/>
    <path d="M 5 76 L 5 152 31.500 152 L 58 152 58 135.500 L 58 119 65.500 119 L 73 119 73 127.500 L 73 136 82 136 L 91 136 91 144 L 91 152 116.500 152 L 142 152 142 126.500 L 142 101 133.500 101 L 125 101 125 92.500 L 125 84 116.500 84 L 108 84 108 76 L 108 68 116.500 68 L 125 68 125 59.500 L 125 51 133.500 51 L 142 51 142 25.500 L 142 0 116.500 0 L 91 0 91 8 L 91 16 82 16 L 73 16 73 24.500 L 73 33 65.500 33 L 58 33 58 16.500 L 58 0 31.500 0 L 5 0 5 76" stroke="none" fill="#000" fill-rule="evenodd"/>
</svg>
