<?xml version="1.0" encoding="UTF-8"?>
<svg version="1.1" xmlns="http://www.w3.org/2000/svg" width="180" height="180">
<path d="M0 0 C8.91 0 17.82 0 27 0 C27.495 19.8 27.495 19.8 28 40 C37.24 30.76 46.48 21.52 56 12 C60.50789276 15.86390808 64.79767029 19.66073352 68.9375 23.875 C69.67709961 24.62136719 69.67709961 24.62136719 70.43164062 25.3828125 C71.62345992 26.58620285 72.81208678 27.79275365 74 29 C72.68729086 31.90221328 71.28101018 33.96712292 69.0234375 36.20703125 C68.43868652 36.79049316 67.85393555 37.37395508 67.25146484 37.97509766 C66.63223145 38.58144043 66.01299805 39.1877832 65.375 39.8125 C64.74416504 40.43688965 64.11333008 41.0612793 63.46337891 41.70458984 C59.64040107 45.46471882 55.76208383 49.1267624 51.6484375 52.5703125 C49.67546071 54.28147246 47.84671409 56.15328591 46 58 C66.295 58.495 66.295 58.495 87 59 C87 67.58 87 76.16 87 85 C73.14 85.33 59.28 85.66 45 86 C55.37430524 96.6044095 55.37430524 96.6044095 66.34765625 106.5703125 C69.04528788 108.90443349 71.50986742 111.4476141 74 114 C72.60652624 117.15204981 70.97514921 119.26171773 68.5234375 121.671875 C67.853125 122.33574219 67.1828125 122.99960938 66.4921875 123.68359375 C65.44417969 124.70646484 65.44417969 124.70646484 64.375 125.75 C63.66859375 126.44738281 62.9621875 127.14476563 62.234375 127.86328125 C60.49400848 129.5801293 58.74829728 131.29123998 57 133 C51.52686034 128.43852453 46.46045191 123.59258679 41.44140625 118.5390625 C40.65225327 117.74849457 39.86310028 116.95792664 39.05003357 116.1434021 C36.55181339 113.63962374 34.05710956 111.13237525 31.5625 108.625 C29.86025792 106.91773752 28.15778627 105.21070391 26.45507812 103.50390625 C22.30072637 99.33858102 18.14924919 95.17040781 14 91 C8.52686034 95.56147547 3.46045191 100.40741321 -1.55859375 105.4609375 C-2.74232323 106.6467894 -2.74232323 106.6467894 -3.94996643 107.8565979 C-6.44818661 110.36037626 -8.94289044 112.86762475 -11.4375 115.375 C-13.13974208 117.08226248 -14.84221373 118.78929609 -16.54492188 120.49609375 C-20.69927363 124.66141898 -24.85075081 128.82959219 -29 133 C-30.10338218 132.0636169 -31.20541029 131.12563812 -32.30688477 130.18701172 C-33.22764549 129.40377029 -33.22764549 129.40377029 -34.16700745 128.60470581 C-36.87952853 126.23001076 -39.41223193 123.69567399 -41.9375 121.125 C-42.43056641 120.62742187 -42.92363281 120.12984375 -43.43164062 119.6171875 C-44.62345992 118.41379715 -45.81208678 117.20724635 -47 116 C-43.9894787 108.80452326 -36.73477265 103.42991991 -30.9375 98.4375 C-26.43107831 94.50332234 -22.22998761 90.22998761 -18 86 C-31.86 85.67 -45.72 85.34 -60 85 C-60 76.42 -60 67.84 -60 59 C-46.47 58.67 -32.94 58.34 -19 58 C-26.7997306 50.1774486 -26.7997306 50.1774486 -34.90625 42.87109375 C-39.11997088 39.10547378 -43.0420697 35.03092492 -47 31 C-45.4106983 27.01263951 -42.60297545 24.40965969 -39.5625 21.5 C-36.45238748 18.50023313 -33.47818873 15.56187125 -31 12 C-26.92662955 13.61937903 -24.19611562 16.53192408 -21.17578125 19.59375 C-20.35547676 20.41474182 -20.35547676 20.41474182 -19.51860046 21.25231934 C-18.36736367 22.40656949 -17.21855052 23.56324142 -16.07202148 24.72216797 C-14.31351615 26.49897327 -12.54709623 28.26760246 -10.77929688 30.03515625 C-9.66098449 31.1583826 -8.54312991 32.28206497 -7.42578125 33.40625 C-6.89664627 33.9364978 -6.36751129 34.46674561 -5.82234192 35.01306152 C-2.11609662 38.76780677 -2.11609662 38.76780677 -1 41 C-0.67 27.47 -0.34 13.94 0 0 Z " fill="#000" transform="translate(76,0)"/>
<path d="M0 0 C8.91 0 17.82 0 27 0 C27 19.47 27 38.94 27 59 C18.09 59 9.18 59 0 59 C0 39.53 0 20.06 0 0 Z " fill="#000" transform="translate(76,120)"/>
</svg>
